<svg xmlns="http://www.w3.org/2000/svg" viewBox="0 0 64 64" fill="currentColor" aria-hidden="true">
  
  <path d="M2 38c4 6 14 10 30 10s26-4 30-10c-1-1-3-1-5 0-3 2-7 3-12 4l-13-15c-1-2-3-2-4 0L15 42c-5-1-9-2-12-4-1 0-1-1 1 0z" opacity=".15"></path>
  <path d="M3 36c0-1 1-2 2-2 3 2 9 4 16 5l11-13c1-1 3-1 4 0l11 13c7-1 13-3 16-5 1 0 2 1 2 2-3 6-14 11-31 11S6 42 3 36zm26-7l3 4 3-4-3-3-3 3z"></path>
  
  <path d="M50 8l-3-3-15 18 3 3z" opacity=".9"></path>
  <path d="M52 4c1 1 1 3 0 4l-3 3-4-4 3-3c1-1 3-1 4 0z"></path>
</svg>